<!-- icon666.com - MILLIONS OF FREE VECTOR ICONS --><svg id="Layer_1" width="20px" height="20px"  fill="#606060" enable-background="new 0 0 20 20" viewBox="0 0 20 20" xmlns="http://www.w3.org/2000/svg"><g><path d="m4 3.2v-3.2h-2v3.2c-1.2.4-2 1.5-2 2.8s.8 2.4 2 2.8v11.2h2v-11.2c1.2-.4 2-1.5 2-2.8s-.8-2.4-2-2.8zm-1 1.8c.6 0 1 .4 1 1s-.4 1-1 1-1-.5-1-1c0-.6.4-1 1-1z"></path><path d="m11 12.2v-12.2h-2v12.2c-1.2.4-2 1.5-2 2.8s.8 2.4 2 2.8v2.2h2v-2.2c1.2-.4 2-1.5 2-2.8s-.8-2.4-2-2.8zm-1 1.8c.6 0 1 .4 1 1s-.4 1-1 1-1-.4-1-1 .4-1 1-1z"></path><path d="m20 8c0-1.3-.8-2.4-2-2.8v-5.2h-2v5.2c-1.2.4-2 1.5-2 2.8s.8 2.4 2 2.8v9.2h2v-9.2c1.2-.4 2-1.5 2-2.8zm-3-1c.6 0 1 .4 1 1s-.4 1-1 1-1-.4-1-1 .4-1 1-1z"></path></g></svg>