<!-- icon666.com - MILLIONS OF FREE VECTOR ICONS --><svg id="Layer_1" enable-background="new 0 0 512 512" fill="#606060" viewBox="0 0 512 512" xmlns="http://www.w3.org/2000/svg"><path d="m0 130.999c0-17.673 14.327-32 32-32h51.846c35.403 0 66.991 14.385 93.887 42.755 12.159 12.826 11.619 33.08-1.207 45.239-6.188 5.867-14.107 8.777-22.011 8.777-8.477 0-16.936-3.347-23.228-9.984-14.537-15.333-30.055-22.787-47.441-22.787h-51.846c-17.673 0-32-14.327-32-32zm350.148 32h52.597l-9.86 9.86c-12.497 12.497-12.497 32.758 0 45.255 6.249 6.249 14.438 9.373 22.627 9.373s16.379-3.124 22.627-9.373l64.488-64.488c12.497-12.497 12.497-32.758 0-45.255l-64.487-64.488c-12.497-12.497-32.758-12.497-45.255 0s-12.497 32.758 0 45.255l9.861 9.861h-52.597c-23.827 0-46.217 6.666-66.55 19.813-18.937 12.244-36.094 30.246-50.994 53.505l-85.105 132.844c-18.899 29.5-39.72 43.841-63.654 43.841h-51.846c-17.673 0-32 14.327-32 32s14.327 32 32 32h51.846c23.827 0 46.217-6.666 66.55-19.813 18.937-12.244 36.094-30.246 50.995-53.505l85.104-132.845c18.898-29.5 39.719-43.84 63.653-43.84zm87.992 130.887c-12.497-12.497-32.758-12.497-45.255 0s-12.497 32.758 0 45.255l9.86 9.86h-52.597c-17.387 0-32.905-7.454-47.441-22.787-12.159-12.825-32.413-13.366-45.239-1.207s-13.366 32.413-1.207 45.239c26.896 28.37 58.484 42.755 93.887 42.755h52.597l-9.861 9.861c-12.497 12.497-12.497 32.758 0 45.255 6.249 6.249 14.438 9.373 22.627 9.373s16.379-3.124 22.627-9.373l64.488-64.488c12.497-12.497 12.497-32.758 0-45.255z"></path></svg>