<!-- icon666.com - MILLIONS OF FREE VECTOR ICONS --><svg id="Layer_2"  width="16px" height="16px" fill="#606060" enable-background="new 0 0 32 32" viewBox="0 0 32 32" xmlns="http://www.w3.org/2000/svg"><g><path d="m1.65997 25.5h5.38l12.30005 6.38c.32996.16998.72998.15997 1.03998-.04004.32001-.19.52002-.52997.52002-.90997v-29.85998c.01996-.77002-.88-1.33002-1.56-.95001l-12.30004 6.39001h-5.38c-.58997 0-1.06995.46997-1.06995 1.06v16.85999c0 .58996.47998 1.07 1.06994 1.07z"></path><path d="m23.87225 19.61243c.41663.41663 1.09161.41663 1.50824 0l2.10291-2.10291 2.10297 2.10291c.41663.41663 1.09161.41663 1.50824 0s.41663-1.09155 0-1.50818l-2.10297-2.10297 2.10297-2.10297c.41663-.41663.41663-1.09155 0-1.50818s-1.09161-.41663-1.50824 0l-2.10297 2.10297-2.10291-2.10297c-.41663-.41663-1.09161-.41663-1.50824 0s-.41663 1.09155 0 1.50818l2.10297 2.10297-2.10297 2.10297c-.41662.41662-.41662 1.09155 0 1.50818z"></path></g></svg>