<!-- icon666.com - MILLIONS OF FREE VECTOR ICONS --><svg id="Layer_1" fill="#606060" enable-background="new 0 0 512 512" viewBox="0 0 512 512" xmlns="http://www.w3.org/2000/svg"><g id="Layer_2_00000047040397051164847500000016740448066981789836_"><g id="next"><path d="m342 232.3-300.9-228.6c-13.1-7.6-29.9-3.1-37.4 10-2.4 4.2-3.7 8.9-3.7 13.7v457.2c0 15.1 12.3 27.4 27.4 27.4 4.8 0 9.5-1.3 13.7-3.7l301-228.6c13.1-7.6 17.6-24.3 10-37.4-2.4-4.2-5.9-7.6-10.1-10z"></path><path d="m462.4 0c27.4 0 49.6 22.2 49.6 49.6v412.9c0 27.4-22.2 49.6-49.6 49.6-27.4 0-49.6-22.2-49.6-49.6v-412.9c.1-27.4 22.3-49.6 49.6-49.6z"></path></g></g></svg>